<svg xmlns="http://www.w3.org/2000/svg" width="48" height="48" viewBox="0 0 48 48" fill="none">
  <path d="M43.7437 1.81125H4.26C2.90759 1.81125 1.81125 2.90759 1.81125 4.26V43.7437C1.81125 45.0962 2.90759 46.1925 4.26 46.1925H43.7437C45.0962 46.1925 46.1925 45.0962 46.1925 43.7437V4.26C46.1925 2.90759 45.0962 1.81125 43.7437 1.81125Z" fill="#3D5A98"/>
  <path d="M32.43 46.1888V29.0025H38.1975L39.06 22.305H32.43V18.03C32.43 16.0913 32.97 14.7675 35.7487 14.7675H39.2962V8.7675C37.5784 8.58847 35.8521 8.50334 34.125 8.5125C29.0175 8.5125 25.5 11.625 25.5 17.3663V22.305H19.7325V29.0025H25.5V46.1888H32.43Z" fill="white"/>
</svg>